<svg xmlns="http://www.w3.org/2000/svg" version="1.1" fill="#fff" width="50" height="50" viewBox="-5.0 -10.0 110.0 110.0">
 <path d="m67.695 59.016c0.57422-1.6289 3.0469-0.75391 2.4727 0.87109-7.1055 20.055-33.094 26.344-48.52 10.918-11.492-11.488-11.492-30.121 0-41.609 15.355-15.355 41.199-9.2148 48.441 10.703 0.58984 1.6172-1.8711 2.5117-2.4609 0.89062-6.5898-18.121-30.137-23.727-44.125-9.7383-10.465 10.465-10.465 27.434 0 37.898 14.039 14.039 37.688 8.3477 44.195-9.9336zm-8.8203-3.1797c-2.4609 6.9414-9.0625 11.59-16.426 11.59-15.484 0-23.262-18.805-12.32-29.742 9.1484-9.1484 24.547-5.3984 28.746 6.4844 0.57422 1.6289 3.0469 0.75391 2.4727-0.87109-2.8242-7.9922-10.426-13.34-18.895-13.34-17.816 0-26.766 21.633-14.176 34.223 10.52 10.52 28.23 6.2266 33.07-7.4688 0.57422-1.625-1.8984-2.5-2.4727-0.87109zm-10.441-0.44141c-5.3047 5.5898-14.031 1.6953-14.031-5.3945 0-7.2188 8.8438-10.812 13.887-5.543 1.5352 1.6016 3.1367-0.46484 2.0859-1.6016-6.7578-7.3281-18.598-2.4336-18.598 7.1484 0 9.7461 11.984 14.25 18.41 7.3477 1.5195-1.6328-0.67188-3.1523-1.7539-1.9531zm44.863-6.3086h-47.125l-1.3672 0.91406 1.3672 0.91406h47.125c0.5625 0 0.5625-1.8281 0-1.8281zm-25.109-2.625 4.5547-5.9141c0.26953-0.34766 0.67969-0.52344 1.0898-0.50781h3.4023c-7.457-26.176-40.711-35.266-60.363-15.617-14.125 14.125-14.125 37.031 0 51.156 19.648 19.648 52.902 10.555 60.359-15.613h-3.4531c-0.46094 0-0.86719-0.23828-1.1016-0.59766l-4.4883-5.8281h-22.406c-0.72266 0-3.1328-1.832-4.0586-2.4531-0.77344-0.51563-0.78125-1.6602 0.019532-2.1875 0.98047-0.64063 3.3125-2.4375 4.0391-2.4375zm19.531-3.8047-2.1992 3.8047h3.8945l2.1992-3.8047zm-0.003906 14.684h3.8945l-2.1953-3.8008h-3.8945zm-12.129-10.879h-4.0938l2.9336-3.8086h3.3594zm5.2227-3.8086-2.1992 3.8086h3.8867l2.1992-3.8086zm-5.2227 10.883 2.1953 3.8008h-3.3633l-2.9258-3.8008zm4.75 2.9883 0.46875 0.8125h3.8867l-2.1953-3.8008h-3.8867z" fill-rule="evenodd"/>
</svg>