<svg xmlns="http://www.w3.org/2000/svg" xmlns:xlink="http://www.w3.org/1999/xlink" fill="#fff" width="50" height="50" version="1.1" x="0px" y="0px" viewBox="0 0 100 125" style="enable-background:new 0 0 100 100;" xml:space="preserve"><path d="M46.18,53.82c3.06,3.06,7.07,4.58,11.09,4.58c4.01,0,8.03-1.53,11.09-4.58c6.11-6.11,6.11-16.06,0-22.17  c-6.11-6.11-16.06-6.11-22.17,0C40.07,37.76,40.07,47.71,46.18,53.82z M57.27,29.87c3.29,0,6.59,1.25,9.1,3.76  c5.02,5.02,5.02,13.18,0,18.2c-5.02,5.02-13.18,5.02-18.2,0c-5.02-5.02-5.02-13.18,0-18.2C50.68,31.13,53.97,29.87,57.27,29.87z   M62.37,47.83c2.81-2.81,2.81-7.39,0-10.2c-0.55-0.55-0.55-1.44,0-1.99c0.55-0.55,1.44-0.55,1.99,0c3.91,3.91,3.91,10.27,0,14.17  c-0.27,0.27-0.63,0.41-0.99,0.41c-0.36,0-0.72-0.14-0.99-0.41C61.82,49.27,61.82,48.38,62.37,47.83z M77.59,70.42  c0.4-3.88-0.41-7.82-2.3-11.21l7.75-7.75c12.1-12.1,15.74-24.82,16.66-33.36c1-9.29-0.86-15.66-0.94-15.93  c-0.14-0.45-0.49-0.81-0.94-0.94C97.55,1.16,91.18-0.71,81.9,0.3c-8.54,0.92-21.26,4.56-33.36,16.66l-7.75,7.75  c-3.39-1.88-7.32-2.7-11.21-2.3c-4.33,0.45-8.41,2.39-11.49,5.47L0.53,45.44c-0.39,0.39-0.51,0.96-0.33,1.47  c0.18,0.51,0.65,0.87,1.19,0.92l14.86,1.4l-2.21,2.21c-0.55,0.55-0.55,1.44,0,1.99l2.49,2.49l-6.75,1.39  c-1.44,0.3-2.59,1.35-3.01,2.76c-0.42,1.4-0.04,2.92,1,3.96l28.21,28.21c0.76,0.76,1.77,1.17,2.81,1.17c0.38,0,0.77-0.06,1.14-0.17  c1.41-0.42,2.46-1.58,2.76-3.02l1.39-6.75l2.49,2.49c0.26,0.26,0.62,0.41,0.99,0.41s0.73-0.15,0.99-0.41l2.21-2.21l1.4,14.86  c0.05,0.54,0.41,1.01,0.92,1.19c0.16,0.06,0.32,0.08,0.48,0.08c0.37,0,0.73-0.14,0.99-0.41l17.56-17.56  C75.2,78.83,77.14,74.75,77.59,70.42z M82.07,3.11c6.99-0.77,12.3,0.2,14.19,0.63c0.44,1.9,1.41,7.21,0.63,14.19  c-0.45,4.09-1.58,9.21-4.07,14.75L67.31,7.18C72.86,4.68,77.97,3.56,82.07,3.11z M50.52,18.95c4.72-4.72,9.53-8.08,14.11-10.47  l26.89,26.89c-2.39,4.59-5.75,9.4-10.47,14.11h0l-8.5,8.5c-0.01,0.01-0.02,0.02-0.02,0.02L55.72,74.81L25.19,44.27l16.82-16.82  c0,0,0,0,0,0L50.52,18.95z M4.63,45.32l15.45-15.45c4.92-4.92,12.5-6.09,18.63-3.08L22.21,43.28l-3.38,3.38L4.63,45.32z   M39.93,89.65c-0.13,0.62-0.61,0.83-0.81,0.89c-0.2,0.06-0.72,0.15-1.16-0.29L9.75,62.04c-0.45-0.45-0.35-0.96-0.29-1.16  c0.06-0.2,0.27-0.69,0.89-0.81l8.57-1.76l22.78,22.78L39.93,89.65z M47.56,82.98l-3.32-3.32c-0.01-0.01-0.01-0.01-0.02-0.02  L20.38,55.79c-0.01-0.01-0.02-0.02-0.03-0.03l-3.32-3.32l6.18-6.18L53.74,76.8l-2.84,2.84c-0.01,0.01-0.02,0.02-0.03,0.03  L47.56,82.98z M54.68,95.37l-1.34-14.2l3.38-3.38L73.21,61.3c3.01,6.13,1.83,13.71-3.08,18.63L54.68,95.37z M11.19,86.2l6.35-6.35  c0.55-0.55,1.44-0.55,1.99,0c0.55,0.55,0.55,1.44,0,1.99l-6.35,6.35c-0.27,0.27-0.63,0.41-0.99,0.41c-0.36,0-0.72-0.14-0.99-0.41  C10.64,87.64,10.64,86.75,11.19,86.2z M23.22,99.95c-0.75-0.2-1.19-0.98-0.99-1.73l2.72-9.98c0.2-0.75,0.98-1.19,1.73-0.99  c0.75,0.2,1.19,0.98,0.99,1.73l-2.72,9.98c-0.17,0.63-0.74,1.04-1.36,1.04C23.47,100,23.34,99.98,23.22,99.95z M12.75,73.32  c0.2,0.75-0.24,1.52-0.99,1.73l-9.98,2.72c-0.12,0.03-0.25,0.05-0.37,0.05c-0.62,0-1.18-0.41-1.36-1.04  c-0.2-0.75,0.24-1.52,0.99-1.73l9.98-2.72C11.77,72.13,12.54,72.57,12.75,73.32z M34.41,41.48c0.55,0.55,0.55,1.44,0,1.99  l-1.47,1.47c-0.27,0.27-0.63,0.41-0.99,0.41c-0.36,0-0.72-0.14-0.99-0.41c-0.55-0.55-0.55-1.44,0-1.99l1.47-1.47  C32.97,40.93,33.86,40.93,34.41,41.48z M58.52,65.59c0.55,0.55,0.55,1.44,0,1.99l-1.47,1.47c-0.27,0.27-0.63,0.41-0.99,0.41  c-0.36,0-0.72-0.14-0.99-0.41c-0.55-0.55-0.55-1.44,0-1.99l1.47-1.47C57.08,65.04,57.97,65.04,58.52,65.59z M56.01,19.87  c-0.55-0.55-0.55-1.44,0-1.99l1.47-1.47c0.55-0.55,1.44-0.55,1.99,0c0.55,0.55,0.55,1.44,0,1.99L58,19.87  c-0.27,0.27-0.63,0.41-0.99,0.41S56.29,20.15,56.01,19.87z M80.13,43.99c-0.55-0.55-0.55-1.44,0-1.99l1.47-1.47  c0.55-0.55,1.44-0.55,1.99,0c0.55,0.55,0.55,1.44,0,1.99l-1.47,1.47c-0.27,0.27-0.63,0.41-0.99,0.41S80.4,44.26,80.13,43.99z"/></svg>