<svg xmlns="http://www.w3.org/2000/svg" data-name="Layer 1" fill="#fff" width="50" height="50" viewBox="0 0 100 100" x="0px" y="0px"><title>20</title><g data-name="Group"><path data-name="Compound Path" d="M82.7,35.4C71.9,27,60.5,22.6,50,22.6,24.7,22.6,4.8,47.1,4,48.1a3,3,0,0,0,0,3.8A85.1,85.1,0,0,0,17.3,64.6C28.1,73,39.5,77.4,50,77.4c25.3,0,45.2-24.5,46-25.6a3,3,0,0,0,0-3.7A85.2,85.2,0,0,0,82.7,35.4ZM50,70.4A20.4,20.4,0,1,1,70.4,50,20.5,20.5,0,0,1,50,70.4Z"/><path data-name="Path" d="M50,38.9A11.1,11.1,0,1,0,61.1,50,11.1,11.1,0,0,0,50,38.9Z" /></g></svg>